<?xml version="1.0" encoding="UTF-8"?>
<svg version="1.1" xmlns="http://www.w3.org/2000/svg" width="512" height="512">
    <path d="M0 0 C0.8494519 -0.00974854 1.69890381 -0.01949707 2.57409668 -0.02954102 C21.69269555 -0.20373444 40.09401832 0.07726441 58.84765625 4.23828125 C59.69150879 4.4202002 60.53536133 4.60211914 61.40478516 4.78955078 C80.4106545 9.00679603 98.75727281 15.95553212 115.84765625 25.23828125 C116.50958984 25.59003418 117.17152344 25.94178711 117.85351562 26.30419922 C136.85434865 36.418279 153.21459327 49.50543679 168.84765625 64.23828125 C169.57984375 64.92792969 170.31203125 65.61757812 171.06640625 66.328125 C207.22251347 101.4081576 232.22026209 156.54927025 233.06298828 206.99743652 C233.07056152 207.78718872 233.07813477 208.57694092 233.0859375 209.390625 C233.09568604 210.2400769 233.10543457 211.08952881 233.11547852 211.96472168 C233.28967194 231.08332055 233.00867309 249.48464332 228.84765625 268.23828125 C228.6657373 269.08213379 228.48381836 269.92598633 228.29638672 270.79541016 C224.07914147 289.8012795 217.13040538 308.14789781 207.84765625 325.23828125 C207.32002686 326.23118164 207.32002686 326.23118164 206.78173828 327.24414062 C196.6676585 346.24497365 183.58050071 362.60521827 168.84765625 378.23828125 C167.81318359 379.3365625 167.81318359 379.3365625 166.7578125 380.45703125 C131.6777799 416.61313847 76.53666725 441.61088709 26.08850098 442.45361328 C25.29874878 442.46118652 24.50899658 442.46875977 23.6953125 442.4765625 C22.8458606 442.48631104 21.99640869 442.49605957 21.12121582 442.50610352 C2.00261695 442.68029694 -16.39870582 442.39929809 -35.15234375 438.23828125 C-35.99619629 438.0563623 -36.84004883 437.87444336 -37.70947266 437.68701172 C-56.715342 433.46976647 -75.06196031 426.52103038 -92.15234375 417.23828125 C-93.14524414 416.71065186 -93.14524414 416.71065186 -94.15820312 416.17236328 C-113.15903615 406.0582835 -129.51928077 392.97112571 -145.15234375 378.23828125 C-146.250625 377.20380859 -146.250625 377.20380859 -147.37109375 376.1484375 C-183.52720097 341.0684049 -208.52494959 285.92729225 -209.36767578 235.47912598 C-209.37524902 234.68937378 -209.38282227 233.89962158 -209.390625 233.0859375 C-209.40037354 232.2364856 -209.41012207 231.38703369 -209.42016602 230.51184082 C-209.59435944 211.39324195 -209.31336059 192.99191918 -205.15234375 174.23828125 C-204.9704248 173.39442871 -204.78850586 172.55057617 -204.60107422 171.68115234 C-200.38382897 152.675283 -193.43509288 134.32866469 -184.15234375 117.23828125 C-183.80059082 116.57634766 -183.44883789 115.91441406 -183.08642578 115.23242188 C-172.972346 96.23158885 -159.88518821 79.87134423 -145.15234375 64.23828125 C-144.46269531 63.50609375 -143.77304688 62.77390625 -143.0625 62.01953125 C-107.25554629 25.11420473 -51.40295683 0.49292302 0 0 Z M-3.7636261 143.96026611 C-5.50518771 146.817077 -5.51504042 148.59198222 -5.49291992 151.92480469 C-5.49269333 153.06568542 -5.49246674 154.20656616 -5.49223328 155.38201904 C-5.47674942 156.60817932 -5.46126556 157.8343396 -5.4453125 159.09765625 C-5.43894524 160.98692841 -5.43894524 160.98692841 -5.43244934 162.91436768 C-5.41850496 166.25516663 -5.391573 169.59534709 -5.3583374 172.93597412 C-5.32759214 176.34788683 -5.31393454 179.75986355 -5.29882812 183.171875 C-5.26574189 189.86084774 -5.21552899 196.54952879 -5.15234375 203.23828125 C-6.20683968 203.22162666 -6.20683968 203.22162666 -7.28263855 203.20463562 C-13.91793868 203.1043195 -20.55302626 203.02825921 -27.1889143 202.97922039 C-30.60031249 202.95316065 -34.01108249 202.91783235 -37.42211914 202.86108398 C-41.34643959 202.79620722 -45.27050849 202.77207055 -49.1953125 202.75 C-51.02681099 202.71129036 -51.02681099 202.71129036 -52.89530945 202.67179871 C-59.70268099 202.4274719 -59.70268099 202.4274719 -65.3996582 205.58129883 C-68.48440449 210.25761779 -68.36745668 214.56334113 -68.40234375 219.98828125 C-68.42296875 220.77460938 -68.44359375 221.5609375 -68.46484375 222.37109375 C-68.50053915 227.74325078 -67.82912237 231.53583232 -65.15234375 236.23828125 C-61.97216327 238.36518904 -59.32779361 238.48231481 -55.55761719 238.46533203 C-54.4367572 238.46518097 -53.31589722 238.46502991 -52.16107178 238.46487427 C-50.95678528 238.4545517 -49.75249878 238.44422913 -48.51171875 238.43359375 C-47.27440002 238.43076385 -46.0370813 238.42793396 -44.76226807 238.42501831 C-41.48082834 238.41572325 -38.19958621 238.3977683 -34.91821289 238.37561035 C-31.56658753 238.35511173 -28.21495368 238.34617849 -24.86328125 238.3359375 C-18.29289152 238.31388155 -11.72263379 238.28040707 -5.15234375 238.23828125 C-5.16566742 239.29277718 -5.16566742 239.29277718 -5.17926025 240.36857605 C-5.2595137 247.00392123 -5.32036237 253.63913035 -5.35959244 260.2748518 C-5.38043951 263.68613124 -5.40870272 267.09700859 -5.45410156 270.50805664 C-5.50600334 274.43240494 -5.52531297 278.35659221 -5.54296875 282.28125 C-5.56361389 283.50224899 -5.58425903 284.72324799 -5.60552979 285.98124695 C-5.60583191 287.12205215 -5.60613403 288.26285736 -5.60644531 289.43823242 C-5.61976898 290.94047615 -5.61976898 290.94047615 -5.63336182 292.47306824 C-5.01963916 296.00115585 -3.60416395 297.67931384 -1.15234375 300.23828125 C2.8948339 301.86896671 7.4785419 301.42232212 11.78515625 301.42578125 C12.58373047 301.43802734 13.38230469 301.45027344 14.20507812 301.46289062 C18.47690727 301.47350826 22.06054015 301.44917592 25.84765625 299.23828125 C28.83394225 296.04682366 29.21687783 293.8676665 29.18823242 289.55175781 C29.18800583 288.41087708 29.18777924 287.26999634 29.18754578 286.09454346 C29.17206192 284.86838318 29.15657806 283.6422229 29.140625 282.37890625 C29.13638016 281.11939148 29.13213531 279.85987671 29.12776184 278.56219482 C29.11381746 275.22139587 29.0868855 271.88121541 29.0536499 268.54058838 C29.02290464 265.12867567 29.00924704 261.71669895 28.99414062 258.3046875 C28.96105439 251.61571476 28.91084149 244.92703371 28.84765625 238.23828125 C29.55065353 238.24938431 30.25365082 238.26048737 30.97795105 238.27192688 C37.61325118 238.372243 44.24833876 238.44830329 50.8842268 238.49734211 C54.29562499 238.52340185 57.70639499 238.55873015 61.11743164 238.61547852 C65.04175209 238.68035528 68.96582099 238.70449195 72.890625 238.7265625 C74.72212349 238.76527214 74.72212349 238.76527214 76.59062195 238.80476379 C83.27308974 238.88905552 83.27308974 238.88905552 89.0949707 235.95776367 C92.23718969 231.08226885 92.05830096 226.61754003 92.09765625 220.92578125 C92.11828125 220.19166016 92.13890625 219.45753906 92.16015625 218.70117188 C92.19722064 213.47972591 91.42501961 209.81832561 88.84765625 205.23828125 C85.66966699 203.10886853 83.02212626 202.99425211 79.25292969 203.01123047 C78.1320697 203.01138153 77.01120972 203.01153259 75.85638428 203.01168823 C74.65209778 203.0220108 73.44781128 203.03233337 72.20703125 203.04296875 C70.96971252 203.04579865 69.7323938 203.04862854 68.45758057 203.05154419 C65.17614084 203.06083925 61.89489871 203.0787942 58.61352539 203.10095215 C55.26190003 203.12145077 51.91026618 203.13038401 48.55859375 203.140625 C41.98820402 203.16268095 35.41794629 203.19615543 28.84765625 203.23828125 C28.86097992 202.16166229 28.86097992 202.16166229 28.87457275 201.06329346 C28.95476115 194.29520531 29.01564217 187.52718828 29.05490494 180.7587471 C29.07576933 177.27906255 29.10406446 173.79977092 29.14941406 170.3203125 C29.20123852 166.31897232 29.22061078 162.31804406 29.23828125 158.31640625 C29.25892639 157.06837219 29.27957153 155.82033813 29.30084229 154.53448486 C29.30114441 153.37358337 29.30144653 152.21268188 29.30175781 151.01660156 C29.31508148 149.48437958 29.31508148 149.48437958 29.32867432 147.92120361 C28.72025996 144.52771678 27.497555 143.36863665 24.84765625 141.23828125 C20.71361984 139.70240534 16.26551438 140.05427953 11.91015625 140.05078125 C11.11158203 140.03853516 10.31300781 140.02628906 9.49023438 140.01367188 C2.15775606 139.98734569 2.15775606 139.98734569 -3.7636261 143.96026611 Z " fill="#02A6FF" transform="translate(244.15234375,34.76171875)"/>
</svg>
