<?xml version="1.0" encoding="UTF-8"?>
<svg version="1.1" xmlns="http://www.w3.org/2000/svg" width="539" height="530">
    <path d="M0 0 C177.87 0 355.74 0 539 0 C539 174.9 539 349.8 539 530 C361.13 530 183.26 530 0 530 C0 355.1 0 180.2 0 0 Z " fill="#48AF2C" transform="translate(0,0)"/>
    <path d="M0 0 C177.87 0 355.74 0 539 0 C539 174.9 539 349.8 539 530 C361.13 530 183.26 530 0 530 C0 355.1 0 180.2 0 0 Z M97.54296875 68.6796875 C95.76533432 70.30167652 93.97518179 71.91000455 92.17578125 73.5078125 C86.6939799 78.3988058 81.66057375 83.32825641 77 89 C76.05894386 90.10576681 75.11750083 91.2112044 74.17578125 92.31640625 C30.24799292 144.4632918 8.91507269 211.49485108 14.18811035 279.42327881 C17.41025183 314.46384295 27.13286343 348.02656662 44 379 C44.69013505 380.30597326 45.38023835 381.6119633 46.0703125 382.91796875 C55.50589725 400.48303442 67.59372493 416.09647514 81.01171875 430.7890625 C82.5960382 432.55080083 84.09390998 434.33088787 85.5625 436.1875 C88.08291444 439.09567051 90.74336834 441.492755 93.671875 443.9765625 C95.32194461 445.41068341 96.93333918 446.88986065 98.515625 448.3984375 C135.8042948 483.91641628 189.62738357 508.5252359 241 513 C242.86398438 513.16435547 242.86398438 513.16435547 244.765625 513.33203125 C312.46288509 518.5618625 380.05875122 500.09257485 432.51171875 456.15625 C435.95866549 453.1692569 439.35451488 450.13017836 442.72265625 447.0546875 C444.6737616 445.29434202 446.66013544 443.60815677 448.6875 441.9375 C451.80704527 439.28225915 454.434292 436.35002892 457.078125 433.2265625 C458.40565247 431.68857336 459.77347943 430.18478607 461.171875 428.7109375 C473.27019579 415.94048778 483.5208418 401.39508064 492 386 C492.46116211 385.17048828 492.92232422 384.34097656 493.39746094 383.48632812 C501.16482895 369.40702605 507.50871731 355.10415454 513 340 C513.41765625 338.89914062 513.8353125 337.79828125 514.265625 336.6640625 C519.02295815 323.48700481 521.64098877 309.31812329 523.75 295.5 C523.86545166 294.74912109 523.98090332 293.99824219 524.09985352 293.22460938 C530.70602195 246.94637105 523.98235471 200.01456418 506 157 C505.67950684 156.23187988 505.35901367 155.46375977 505.02880859 154.67236328 C493.12496816 126.716279 474.98319519 100.01571961 453 79 C450.57648283 76.59609057 448.17261219 74.18094945 445.81640625 71.7109375 C439.07103556 64.72006805 431.75961756 58.81707097 424 53 C423.44328613 52.5771875 422.88657227 52.154375 422.31298828 51.71875 C397.51129978 32.96178617 368.79081351 19.60485437 339 11 C337.89785156 10.65324219 336.79570312 10.30648438 335.66015625 9.94921875 C322.74881917 6.11870752 309.32303856 4.71544285 296 3 C294.71859131 2.82202881 293.43718262 2.64405762 292.11694336 2.46069336 C287.98826093 1.94922114 283.90703008 1.82250816 279.75 1.796875 C278.98294739 1.78981537 278.21589478 1.78275574 277.42559814 1.77548218 C209.98300992 1.29679812 147.70952934 22.89971011 97.54296875 68.6796875 Z " fill="#FDFDFD" transform="translate(0,0)"/>
    <path d="M0 0 C2.8046875 1.22265625 2.8046875 1.22265625 5.875 3.0625 C6.45741455 3.40829102 7.0398291 3.75408203 7.63989258 4.11035156 C9.77197164 5.38803822 11.88662888 6.69159613 14 8 C14.8863916 8.5470459 15.7727832 9.0940918 16.68603516 9.65771484 C22.80653418 13.4439416 28.90073504 17.2706597 34.98779297 21.11035156 C37.85803169 22.91093899 40.74049877 24.68968141 43.62890625 26.4609375 C44.49620361 26.99686523 45.36350098 27.53279297 46.25708008 28.08496094 C47.87116872 29.08208866 49.48926882 30.07276385 51.11206055 31.05566406 C55.86092798 34.00825076 59.43746816 36.87493632 62 42 C62.64919612 47.46607107 60.7555358 50.88368776 57.9375 55.375 C57.49631836 56.10122559 57.05513672 56.82745117 56.60058594 57.57568359 C55.08315825 60.06076881 53.54371564 62.53116457 52 65 C51.4323291 65.91201172 50.8646582 66.82402344 50.27978516 67.76367188 C47.79735118 71.75018074 45.30991237 75.73345753 42.81225586 79.71044922 C38.48249061 86.6053798 34.21825113 93.53635747 30 100.5 C25.26710144 108.30841629 20.47512371 116.07634704 15.625 123.8125 C8.36042613 135.39999031 1.18581822 147.04133995 -5.97070312 158.69580078 C-9.37351121 164.23641732 -12.78021377 169.77463654 -16.1875 175.3125 C-16.85297852 176.394104 -17.51845703 177.47570801 -18.20410156 178.59008789 C-22.87850496 186.18455496 -27.56148018 193.77365839 -32.26269531 201.3515625 C-35.01570812 205.78935731 -37.75798627 210.23328888 -40.484375 214.6875 C-41.06227783 215.62875732 -41.64018066 216.57001465 -42.2355957 217.53979492 C-43.33104538 219.32447747 -44.42356895 221.11096111 -45.51245117 222.8996582 C-46.51078806 224.52322267 -47.5243563 226.13753349 -48.55395508 227.74145508 C-49.46797574 229.16904332 -50.35028888 230.61788969 -51.1862793 232.0925293 C-55.7741993 239.38498232 -63.49310941 242.46626901 -70.9375 246.1875 C-73.10049331 247.29578495 -75.25976811 248.41108716 -77.41885376 249.52696228 C-78.86516774 250.2740893 -80.31257737 251.01909917 -81.76107788 251.76197815 C-89.21152033 255.59139022 -96.48047172 259.7132984 -103.74194336 263.8894043 C-117.85414882 271.98090248 -117.85414882 271.98090248 -122.75 272.0625 C-126.86343324 270.71772375 -127.8165553 269.73737753 -130 266 C-130.50916508 262.41867116 -130.37707239 258.89369999 -130.2578125 255.28515625 C-130.21858876 253.11215066 -130.17986812 250.93913594 -130.14160156 248.76611328 C-130.10226501 247.08693817 -130.10226501 247.08693817 -130.06213379 245.37384033 C-130.00227265 242.12340403 -129.99971611 238.87923161 -130.02246094 235.62841797 C-130.33885877 187.42815294 -130.33885877 187.42815294 -115.98193359 170.45800781 C-112.39496789 166.00942803 -109.57942291 161.06809078 -106.625 156.1875 C-105.36906158 154.1763984 -104.10992378 152.16729143 -102.84765625 150.16015625 C-96.85100905 140.57684383 -90.9448299 130.93769915 -85.02929688 121.30419922 C-81.62648879 115.76358268 -78.21978623 110.22536346 -74.8125 104.6875 C-74.14702148 103.605896 -73.48154297 102.52429199 -72.79589844 101.40991211 C-66.031022 90.41906965 -59.23573504 79.44716027 -52.43652344 68.47753906 C-50.85319045 65.92272733 -49.27023592 63.36768166 -47.6875 60.8125 C-46.89545166 59.53403198 -46.89545166 59.53403198 -46.08740234 58.22973633 C-42.37796231 52.2377771 -38.68544734 46.23558004 -34.99853516 40.22973633 C-32.3067983 35.84841009 -29.60778525 31.47159605 -26.90722656 27.09570312 C-25.66903103 25.08593362 -24.43382654 23.07431715 -23.20214844 21.06054688 C-21.58059294 18.41012322 -19.94804088 15.76680864 -18.3125 13.125 C-17.60951782 11.96653564 -17.60951782 11.96653564 -16.89233398 10.78466797 C-12.64786421 3.97652301 -8.4713575 -0.66341956 0 0 Z " fill="#FBFCFA" transform="translate(324,106)"/>
    <path d="M0 0 C5.3639985 0.45855256 9.19051801 3.43701036 13.5625 6.3125 C15.24607216 7.39918889 16.93101734 8.48375295 18.6171875 9.56640625 C19.92961426 10.40969482 19.92961426 10.40969482 21.26855469 11.27001953 C25.85948373 14.17771735 30.52100516 16.96574639 35.1875 19.75 C36.06672119 20.27505127 36.94594238 20.80010254 37.85180664 21.34106445 C39.90009902 22.56258335 41.94939815 23.78236339 44 25 C42.76360314 28.27598741 41.38520645 31.20461269 39.5234375 34.16796875 C39.02585937 34.96525391 38.52828125 35.76253906 38.015625 36.58398438 C37.47421875 37.44314453 36.9328125 38.30230469 36.375 39.1875 C35.19485312 41.07653601 34.01518767 42.96587284 32.8359375 44.85546875 C32.21170898 45.85368652 31.58748047 46.8519043 30.94433594 47.88037109 C27.60489865 53.23839842 24.30432439 58.62027495 21 64 C14.54958795 74.49008734 8.0772624 84.96636216 1.58984375 95.43359375 C-0.61663131 98.99539747 -2.81996797 102.55913915 -5.0234375 106.12280273 C-6.64937366 108.75087473 -8.27758073 111.37752737 -9.90625 114.00390625 C-11.93583906 117.27725286 -13.95590012 120.55618056 -15.96875 123.83984375 C-16.87490773 125.30995271 -17.78115264 126.78000794 -18.6875 128.25 C-19.09766357 128.92393799 -19.50782715 129.59787598 -19.93041992 130.29223633 C-22.77356451 134.88678225 -22.77356451 134.88678225 -25 136 C-26.92919922 135.12646484 -26.92919922 135.12646484 -29.3046875 133.7109375 C-30.18946777 133.18717529 -31.07424805 132.66341309 -31.98583984 132.1237793 C-32.9392627 131.54668213 -33.89268555 130.96958496 -34.875 130.375 C-36.33413818 129.50258667 -36.33413818 129.50258667 -37.82275391 128.61254883 C-47.70954204 122.65762464 -57.38541788 116.38288268 -67 110 C-63.83316558 103.32759016 -60.08128392 97.16844408 -56.125 90.9375 C-51.01615225 82.83106322 -45.961879 74.69723966 -41 66.5 C-35.62046086 57.62201234 -30.14463443 48.80860643 -24.62744141 40.015625 C-19.56742963 31.93863572 -14.59336738 23.81158476 -9.65429688 15.66015625 C-6.47565137 10.41443948 -3.26391461 5.19314294 0 0 Z " fill="#48AF2D" transform="translate(284,188)"/>
    <path d="M0 0 C0.8230586 -0.00367669 1.64611719 -0.00735338 2.49411696 -0.01114148 C5.26778727 -0.02220474 8.04142015 -0.02602661 10.81510925 -0.02983093 C12.79741536 -0.03609354 14.77972029 -0.04274016 16.76202393 -0.04974365 C22.15875923 -0.0671711 27.55548566 -0.07770995 32.95224214 -0.08594918 C36.3215839 -0.09109514 39.69092288 -0.09717102 43.06026268 -0.10346031 C53.59535458 -0.12251637 64.13043945 -0.1367472 74.66554528 -0.14507228 C86.8393564 -0.15485033 99.01298595 -0.18118299 111.18673307 -0.22157317 C120.58804921 -0.25169808 129.98931319 -0.26653767 139.39067668 -0.26985329 C145.00964603 -0.27220773 150.62842153 -0.28121937 156.24733925 -0.30631447 C161.53245176 -0.32953706 166.81724196 -0.33385184 172.1023922 -0.32355309 C174.04343612 -0.32305621 175.98449561 -0.32942103 177.92549133 -0.34310913 C180.57335691 -0.36073909 183.22005459 -0.35376615 185.86791992 -0.34057617 C186.63796303 -0.35154542 187.40800614 -0.36251466 188.20138389 -0.37381631 C191.83081386 -0.33009767 193.95955963 0.04581606 197.07796764 1.96281147 C199.90577632 4.98115895 200.12443542 7.0559233 200.12443542 11.14717102 C198.77881143 14.09472834 198.03888998 15.68994374 195.12443542 17.14717102 C192.45066692 17.25160222 189.80256392 17.29496687 187.12825012 17.29434204 C185.87422789 17.29985707 185.87422789 17.29985707 184.59487188 17.30548352 C181.77740908 17.31654726 178.95998313 17.32036872 176.14250183 17.32417297 C174.12901695 17.33043549 172.11553322 17.3370821 170.10205078 17.34408569 C164.62067452 17.36151281 159.13930699 17.37205169 153.65790987 17.38029122 C150.2363129 17.38543676 146.81471867 17.39151263 143.39312363 17.39780235 C132.69625115 17.41685747 121.9993856 17.43108906 111.30249941 17.43941432 C98.93850788 17.44919502 86.57469499 17.47553498 74.21076643 17.51591522 C64.66424422 17.54602845 55.11777335 17.56087856 45.57120454 17.56419533 C39.86451895 17.56655092 34.15802413 17.57557747 28.45138931 17.60065651 C23.08502452 17.62385905 17.71897717 17.62820204 12.3525753 17.61789513 C10.38047292 17.61739778 8.40835531 17.62377644 6.43630028 17.63745117 C3.7486778 17.65504859 1.06220967 17.64812441 -1.62541199 17.63491821 C-2.41004078 17.64588746 -3.19466958 17.6568567 -4.003075 17.66815835 C-7.55653313 17.62585715 -9.49860768 17.43651856 -12.35799599 15.24168682 C-14.45963891 12.34104408 -14.44228434 10.52519078 -14.27400208 7.04951477 C-13.6666088 4.14950963 -12.21056665 2.86408431 -9.87556458 1.14717102 C-6.75225819 -0.41448217 -3.42893112 -0.00081388 0 0 Z " fill="#F9FBF8" transform="translate(185.8755645751953,401.8528289794922)"/>
    <path d="M0 0 C3.41222195 1.28028761 6.43207704 2.75515271 9.51953125 4.6875 C10.36999023 5.21690186 11.22044922 5.74630371 12.09667969 6.29174805 C12.99290039 6.85547119 13.88912109 7.41919434 14.8125 8 C15.73579102 8.5772583 16.65908203 9.1545166 17.61035156 9.74926758 C19.4964568 10.92865263 21.38171284 12.10939687 23.26611328 13.29150391 C25.80402018 14.87752574 28.35057034 16.44813467 30.90234375 18.01171875 C31.64057373 18.46611328 32.37880371 18.92050781 33.1394043 19.38867188 C34.52028256 20.23844312 35.90318572 21.08493484 37.28833008 21.92773438 C41.88707031 24.77414061 41.88707031 24.77414061 43 27 C42.01196289 28.97119141 42.01196289 28.97119141 40.47265625 31.3515625 C39.92802734 32.20234375 39.38339844 33.053125 38.82226562 33.9296875 C38.24154297 34.81914062 37.66082031 35.70859375 37.0625 36.625 C36.48564453 37.5221875 35.90878906 38.419375 35.31445312 39.34375 C33.88339217 41.56721661 32.4450185 43.78558887 31 46 C24.30671087 42.79550447 17.98354133 39.27163957 11.75 35.25 C10.93877686 34.73211914 10.12755371 34.21423828 9.29174805 33.68066406 C6.85799611 32.12532166 4.42864026 30.56330877 2 29 C0.55355432 28.07265317 -0.89305066 27.14555474 -2.33984375 26.21875 C-5.56366009 24.1516307 -8.78321998 22.07805039 -12 20 C-10.41956214 15.47459324 -8.04961363 11.7280056 -5.4375 7.75 C-5.02564453 7.11320313 -4.61378906 6.47640625 -4.18945312 5.8203125 C-1.16071429 1.16071429 -1.16071429 1.16071429 0 0 Z " fill="#4AB02E" transform="translate(323,126)"/>
    <path d="M0 0 C3.10349537 0.50459588 5.42616104 1.68440141 8.09765625 3.30078125 C9.2872998 4.01669434 9.2872998 4.01669434 10.50097656 4.74707031 C11.3462793 5.26366211 12.19158203 5.78025391 13.0625 6.3125 C13.93487305 6.84069336 14.80724609 7.36888672 15.70605469 7.91308594 C24.87884899 13.48922265 33.95300404 19.22255494 43 25 C42.24549585 28.28466867 41.11926972 30.81768357 39.4375 33.75 C38.98246094 34.54921875 38.52742188 35.3484375 38.05859375 36.171875 C37.70925781 36.77515625 37.35992187 37.3784375 37 38 C31.41964885 36.49179699 27.10167574 33.74169458 22.3125 30.625 C20.63554174 29.54928415 18.95845432 28.47376965 17.28125 27.3984375 C16.41886719 26.8425293 15.55648438 26.28662109 14.66796875 25.71386719 C10.23344832 22.86519099 5.77183812 20.05959914 1.3125 17.25 C-0.29569877 16.23457429 -1.90378351 15.21896795 -3.51171875 14.203125 C-4.18678467 13.77676758 -4.86185059 13.35041016 -5.55737305 12.91113281 C-6.03343994 12.61045898 -6.50950684 12.30978516 -7 12 C-6.02296079 10.1863523 -5.04330895 8.37411183 -4.0625 6.5625 C-3.51722656 5.55316406 -2.97195313 4.54382813 -2.41015625 3.50390625 C-1 1 -1 1 0 0 Z " fill="#4BB030" transform="translate(301,161)"/>
    <path d="M0 0 C3.556698 1.4226792 6.37177114 2.70164906 9.58203125 4.64453125 C10.43216797 5.15693359 11.28230469 5.66933594 12.15820312 6.19726562 C13.03412109 6.73029297 13.91003906 7.26332031 14.8125 7.8125 C16.10897461 8.59463867 16.10897461 8.59463867 17.43164062 9.39257812 C19.13895844 10.42470007 20.84361845 11.46123306 22.54541016 12.50244141 C24.16345869 13.4896216 25.78805809 14.46615505 27.41943359 15.43115234 C28.51698975 16.08978271 28.51698975 16.08978271 29.63671875 16.76171875 C30.28729248 17.14674561 30.93786621 17.53177246 31.6081543 17.9284668 C32.06746338 18.28207275 32.52677246 18.63567871 33 19 C33 19.66 33 20.32 33 21 C29.10575926 23.10303504 25.20963606 25.20252782 21.31176758 27.29882812 C19.98735736 28.01173571 18.6634568 28.72559098 17.34008789 29.44042969 C15.43250157 30.47062674 13.52307901 31.49734712 11.61328125 32.5234375 C10.46641846 33.14138184 9.31955566 33.75932617 8.13793945 34.39599609 C5 36 5 36 0 38 C0 25.46 0 12.92 0 0 Z " fill="#4CB131" transform="translate(212,316)"/>
</svg>